<svg xmlns="http://www.w3.org/2000/svg" width="118" height="118" fill="none" viewBox="0 0 118 118"><rect width="118" height="118" fill="#000" rx="59"/><g clip-path="url(#clip0_156_8)"><path fill="url(#paint0_linear_156_8)" d="M28.3203 66.3452L62.8719 47.0045L80.1478 56.6748C89.6889 62.0156 89.6889 70.6746 80.1478 76.0155C70.6067 81.3563 55.1373 81.3563 45.5961 76.0155L28.3203 66.3452Z"/><path fill="url(#paint1_linear_156_8)" d="M28.3203 54.7407L62.8719 35.4L80.1478 45.0704C89.6889 50.4112 89.6889 59.0702 80.1478 64.411C70.6067 69.7519 55.1373 69.7519 45.5961 64.411L28.3203 54.7407Z"/><path fill="url(#paint2_linear_156_8)" d="M28.3203 60.543L62.8719 41.2023L80.1478 50.8726C89.6889 56.2134 89.6889 64.8724 80.1478 70.2133C70.6067 75.5541 55.1373 75.5541 45.5961 70.2133L28.3203 60.543Z"/></g><defs><linearGradient id="paint0_linear_156_8" x1="45.596" x2="62.083" y1="56.675" y2="86.128" gradientUnits="userSpaceOnUse"><stop stop-color="#fff"/><stop offset="1" stop-color="#fff" stop-opacity=".33"/></linearGradient><linearGradient id="paint1_linear_156_8" x1="45.596" x2="62.083" y1="45.07" y2="74.523" gradientUnits="userSpaceOnUse"><stop stop-color="#fff"/><stop offset="1" stop-color="#fff" stop-opacity=".72"/></linearGradient><linearGradient id="paint2_linear_156_8" x1="45.596" x2="62.083" y1="50.873" y2="80.325" gradientUnits="userSpaceOnUse"><stop stop-color="#D9D9D9"/><stop offset="1" stop-color="#D9D9D9" stop-opacity=".35"/></linearGradient><clipPath id="clip0_156_8"><rect width="59" height="44.84" fill="#fff" transform="translate(28.3203 35.4)"/></clipPath></defs></svg>